<svg version="1.1" id="Layer_1" xmlns="http://www.w3.org/2000/svg" x="0" y="0" viewBox="0 0 1000 1000" style="enable-background:new 0 0 1000 1000" xml:space="preserve"><style>.st4{fill:#fff}</style><path id="Background" d="M620 1000H380C170.1 1000 0 829.9 0 620V380C0 170.1 170.1 0 380 0h240c209.9 0 380 170.1 380 380v240c0 209.9-170.1 380-380 380z" style="fill:#231f20"/><path id="Bird3" d="M715.6 652.4c-31.3-67.3-130.2-91-189-43.6 75.2-31.7 169.5 15.1 189 91.6 20.2-76.5 113.8-123.3 190.5-90.6-60.2-48.4-159.2-24.7-190.5 42.6z" style="fill:#c1c1c1"/><path id="Bird2" d="M628.1 383.3c-43.3 0-81.5 25.3-103.3 63.7-21.9-38.3-60-63.7-103.3-63.7-44.5 0-83.6 26.6-105.1 66.6 22.3-32.8 57.5-53.9 96.8-53.9 44.1 0 82.6 26.3 104.1 65.6 2.4 4.5 4.7 9.2 6.8 14.1 2.2-5.2 4.6-10.4 7.3-15.3 21.6-38.8 59.9-64.5 103.5-64.5 42.6 0 80.1 24.5 102 61.9-20.2-44.2-61.4-74.5-108.8-74.5z" style="fill:#d8d8d8"/><path id="Bird1" class="st4" d="M649 236.2c-35.5-76.1-147.5-102.9-213.9-49.2C520.2 151.1 627 204.1 649 290.7c22.9-86.6 128.8-139.6 215.6-102.5-68.1-55-180.1-28.2-215.6 48z"/><path id="Moon" class="st4" d="M647 820.2c-232.5 0-421-188.5-421-420.9 0-130.3 59.2-246.6 152-323.8C193.2 128.3 58 298.4 58 500.1c0 243.8 197.7 441.5 441.5 441.5 143.3 0 270.7-68.3 351.4-174.1-60.3 33.6-129.9 52.7-203.9 52.7z"/></svg>