<svg version="1.1" id="Layer_1" xmlns="http://www.w3.org/2000/svg" x="0" y="0" viewBox="0 0 1000 1000" style="enable-background:new 0 0 1000 1000" xml:space="preserve"><style>.st3{fill:#fff}</style><path d="M620 1000H380C170.1 1000 0 829.9 0 620V380C0 170.1 170.1 0 380 0h240c209.9 0 380 170.1 380 380v240c0 209.9-170.1 380-380 380z" style="fill:#231f20"/><path d="M664.3 675.2c-31.3-67.3-130.2-91-189-43.6 75.2-31.7 169.5 15.1 189 91.6 20.2-76.5 113.8-123.3 190.5-90.6-60.2-48.4-159.2-24.7-190.5 42.6z" style="fill:#c1c1c1"/><path d="M631.5 398.8c-43.3 0-81.5 25.3-103.3 63.7-21.9-38.3-60-63.7-103.3-63.7-44.5 0-83.6 26.6-105.1 66.6 22.3-32.8 57.5-53.9 96.8-53.9 44.1 0 82.6 26.3 104.1 65.6 2.4 4.5 4.7 9.2 6.8 14.1 2.2-5.2 4.6-10.4 7.3-15.3 21.6-38.8 59.9-64.5 103.5-64.5 42.6 0 80.1 24.5 102 61.9-20.2-44.2-61.4-74.5-108.8-74.5z" style="fill:#d8d8d8"/><path class="st3" d="M609.2 251.5c-35.5-76.1-147.5-102.9-213.9-49.2 85.1-35.9 191.9 17.1 213.9 103.7 22.9-86.6 128.8-139.6 215.6-102.5-68.1-55-180.1-28.2-215.6 48z"/><path class="st3" d="M226.2 409.2c0-138.9 65-262.6 166.3-342.3C205.4 117.9 67.9 289 67.9 492.3 66.2 871.7 523.7 1073 802.1 821.6c-276.4 98-580.2-118.3-575.9-412.4z"/></svg>