<svg version="1.1" id="Layer_1" xmlns="http://www.w3.org/2000/svg" x="0" y="0" viewBox="0 0 955.1 957.7" style="enable-background:new 0 0 955.1 957.7" xml:space="preserve"><style>.st3{fill:#fff}</style><path d="M590.1 957.7H365c-201.6 0-365-163.4-365-365V367.6C0 166 163.4 2.6 365 2.6h225.1c201.6 0 365 163.4 365 365v225.1c0 201.5-163.4 365-365 365z" style="fill:#231f20"/><path d="M637.9 640.3C608 576 513.5 553.4 457.4 598.7c71.8-30.3 161.9 14.4 180.5 87.5 19.3-73.1 108.7-117.8 181.9-86.5-57.4-46.3-152-23.7-181.9 40.6z" style="fill:#c1c1c1"/><path d="M603.1 383.7c-41.4 0-77.8 24.2-98.7 60.8-20.9-36.6-57.3-60.8-98.7-60.8-42.5 0-79.8 25.4-100.4 63.6 21.3-31.3 54.9-51.5 92.5-51.5 42.1 0 78.9 25.1 99.4 62.7 2.3 4.3 4.5 8.8 6.5 13.5 2.1-5 4.4-9.9 7-14.6 20.6-37.1 57.2-61.6 98.9-61.6 40.7 0 76.5 23.4 97.4 59.1-19.3-42.2-58.6-71.2-103.9-71.2z" style="fill:#d8d8d8"/><path class="st3" d="M582.1 239.5c-33.9-72.7-140.9-98.3-204.3-47 81.3-34.3 183.3 16.3 204.3 99 21.9-82.7 123-133.3 205.9-97.9-65-52.4-172-26.8-205.9 45.9z"/><path class="st3" d="M216.9 392.1c0-132.7 62.1-250.8 158.8-326.9-178.7 48.7-310 212.1-310 406.3C64.1 833.9 501 1026.1 766.9 786c-264 93.6-554.1-113-550-393.9z"/></svg>