<?xml version="1.0" encoding="utf-8"?>
<!-- Generator: Adobe Illustrator 25.0.0, SVG Export Plug-In . SVG Version: 6.00 Build 0)  -->
<svg version="1.1"
	 id="Logo" xmlns:cc="http://creativecommons.org/ns#" xmlns:dc="http://purl.org/dc/elements/1.1/" xmlns:inkscape="http://www.inkscape.org/namespaces/inkscape" xmlns:rdf="http://www.w3.org/1999/02/22-rdf-syntax-ns#" xmlns:sodipodi="http://sodipodi.sourceforge.net/DTD/sodipodi-0.dtd" xmlns:svg="http://www.w3.org/2000/svg"
	 xmlns="http://www.w3.org/2000/svg" xmlns:xlink="http://www.w3.org/1999/xlink" x="0px" y="0px" viewBox="0 0 750 892"
	 style="enable-background:new 0 0 750 892;" xml:space="preserve">
<style type="text/css">
	.st0{fill:#231F20;stroke:#000000;stroke-miterlimit:10;}
	.st1{fill:#777777;}
	.st2{fill:#555555;}
	.st3{fill:#999999;}
	.st4{fill:#FFFFFF;}
</style>
<path class="st0" d="M504.8,922.7H283.7c-202.7,0-367-164.3-367-367V334.6c0-202.7,164.3-367,367-367h221.1
	c202.7,0,367,164.3,367,367v221.1C871.8,758.4,707.5,922.7,504.8,922.7z"/>
<path id="Oiseau3" class="st1" d="M538,607.9c-23.7-50.9-98.6-68.8-143-32.9c56.9-24,128.3,11.4,143,69.3
	c15.3-57.9,86.1-93.3,144.1-68.5C636.6,539.1,561.7,557,538,607.9z"/>
<path id="Oiseau2" class="st2" d="M456.7,364.2c-30.1,0-56.6,15.6-71.8,39.2c-15.2-23.6-41.7-39.2-71.8-39.2c-30.9,0-58,16.4-73,41
	C255.6,385,280,372,307.4,372c30.6,0,57.4,16.2,72.3,40.4c1.7,2.8,3.3,5.7,4.7,8.7c1.5-3.2,3.2-6.4,5.1-9.4
	c15-23.9,41.6-39.7,71.9-39.7c29.6,0,55.6,15.1,70.8,38.1C518.2,382.9,489.6,364.2,456.7,364.2z"/>
<path id="Oiseau1" class="st3" d="M522.6,227c-23.7-50.9-98.6-68.8-143-32.9c56.9-24,128.3,11.4,143,69.3
	c15.3-57.9,86.1-93.3,144.1-68.5C621.2,158.2,546.3,176.1,522.6,227z"/>
<path id="Lune" class="st4" d="M170.4,341.7c0-137.2,64.2-259.4,164.2-338.1C149.8,54,14,223,14,423.8
	c-1.6,374.9,450.3,573.7,725.3,325.3C466.3,845.9,166.2,632.3,170.4,341.7z"/>
</svg>
