<svg xmlns="http://www.w3.org/2000/svg" viewBox="0 0 950.9 950.9" style="enable-background:new 0 0 950.9 950.9" xml:space="preserve"><path d="M0 0h950.9v950.9H0V0z" style="fill:#231f20"/><path d="M621 643.9c-23.7-50.9-98.6-68.8-143-32.9 56.9-24 128.3 11.4 143 69.3 15.3-57.9 86.1-93.3 144.1-68.5-45.5-36.7-120.4-18.8-144.1 32.1z" style="fill:#777"/><path d="M539.7 400.2c-30.1 0-56.6 15.6-71.8 39.2-15.2-23.6-41.7-39.2-71.8-39.2-30.9 0-58 16.4-73 41C338.6 421 363 408 390.4 408c30.6 0 57.4 16.2 72.3 40.4 1.7 2.8 3.3 5.7 4.7 8.7 1.5-3.2 3.2-6.4 5.1-9.4 15-23.9 41.6-39.7 71.9-39.7 29.6 0 55.6 15.1 70.8 38.1-14-27.2-42.6-45.9-75.5-45.9z" style="fill:#555"/><path d="M605.6 263c-23.7-50.9-98.6-68.8-143-32.9 56.9-24 128.3 11.4 143 69.3 15.3-57.9 86.1-93.3 144.1-68.5-45.5-36.7-120.4-18.8-144.1 32.1z" style="fill:#999"/><path d="M253.4 377.7c0-137.2 64.2-259.4 164.2-338.1C232.8 90 97 259 97 459.8c-1.6 374.9 450.3 573.7 725.3 325.3-273 96.8-573.1-116.8-568.9-407.4z" style="fill:#fff"/></svg>