<svg xmlns="http://www.w3.org/2000/svg" viewBox="0 0 512 512" style="enable-background:new 0 0 512 512" xml:space="preserve"><path style="fill:#231f20" d="M0 0h512v512H0z"/><circle cx="91.5" cy="252.9" r="33.4" style="fill:#70cc50"/><circle cx="247.7" cy="413.7" r="33.4" style="fill:#b2906a"/><circle cx="397.1" cy="334.8" r="33.4" style="fill:#de5540"/><circle cx="175.7" cy="92" r="33.4" style="fill:#94a9d4"/><linearGradient id="a" gradientUnits="userSpaceOnUse" x1="-63.193" y1="580.368" x2="275.926" y2="580.368" gradientTransform="rotate(-45.001 -160.95 354.797)"><stop offset=".059" style="stop-color:#231f20"/><stop offset=".145" style="stop-color:#332738"/><stop offset=".458" style="stop-color:#6c448c"/><stop offset=".715" style="stop-color:#9658c9"/><stop offset=".902" style="stop-color:#b065ef"/><stop offset="1" style="stop-color:#ba6afd"/></linearGradient><path style="fill:url(#a)" d="M347 218.2 93.8 471.3 41.5 419l253.1-253.1z"/><path d="M310.8 202 419.9 92.9c-2.3-2.3-13.1 3.5-13.1 3.5L215.1 188c-3.5 1.4-6.6 9.6-1.1 10.2l94 2.9s2 .1 2.8.9z" style="fill:#9934ee"/><path d="M310.8 202 419.9 92.9c2.3 2.3-3.5 13.1-3.5 13.1l-91.6 191.7c-1.4 3.5-9.6 6.6-10.2 1.1l-2.9-94s-.1-2.1-.9-2.8z" style="fill:#64229c"/></svg>