<svg xmlns="http://www.w3.org/2000/svg" viewBox="0 0 1000 1000" style="enable-background:new 0 0 1000 1000" xml:space="preserve"><path style="fill:#231f20" d="M0 0h1000v1000H0z"/><path d="M757.1 618.9c-22.5-48.4-93.7-65.4-135.9-31.3 54.1-22.8 121.9 10.8 135.9 65.8 14.5-55 81.8-88.6 136.9-65.1-43.2-34.8-114.4-17.8-136.9 30.6z" style="fill:#777"/><path d="M567 400.6c-28.6 0-53.8 14.8-68.2 37.2-14.4-22.4-39.6-37.2-68.2-37.2-29.4 0-55.1 15.6-69.4 38.9 14.7-19.2 37.9-31.5 63.9-31.5 29.1 0 54.5 15.4 68.7 38.4 1.6 2.7 3.1 5.4 4.5 8.3 1.4-3 3-6.1 4.8-8.9 14.2-22.7 39.5-37.7 68.3-37.7 28.1 0 52.8 14.3 67.3 36.2-13.3-25.9-40.4-43.7-71.7-43.7z" style="fill:#555"/><path d="M683.2 251c-22.5-48.4-93.7-65.4-135.9-31.3 54.1-22.8 121.9 10.8 135.9 65.8 14.5-55 81.8-88.6 136.9-65.1-43.2-34.7-114.3-17.7-136.9 30.6z" style="fill:#999"/><path d="M638.7 801.3c-218.8 0-396.2-177.4-396.2-396.2 0-122.6 55.7-232.1 143.1-304.8C211.7 150 84.4 310.1 84.4 500c0 229.5 186.1 415.6 415.6 415.6 134.9 0 254.8-64.3 330.8-163.9-56.9 31.6-122.4 49.6-192.1 49.6z" style="fill:#fff"/></svg>