<?xml version="1.0" encoding="utf-8"?>
<!-- Generator: Adobe Illustrator 27.0.1, SVG Export Plug-In . SVG Version: 6.00 Build 0)  -->
<svg version="1.1" id="Layer_1" xmlns="http://www.w3.org/2000/svg" xmlns:xlink="http://www.w3.org/1999/xlink" x="0px" y="0px"
	 viewBox="0 0 512 512" style="enable-background:new 0 0 512 512;" xml:space="preserve">
<style type="text/css">
	.st0{fill:#231F20;}
	.st1{fill:#70CC50;}
	.st2{fill:#B2906A;}
	.st3{fill:#DE5540;}
	.st4{fill:#94A9D4;}
	.st5{fill:url(#SVGID_1_);}
	.st6{fill:#9934EE;}
	.st7{fill:#64229C;}
</style>
<rect y="0" class="st0" width="512" height="512"/>
<circle class="st1" cx="91.5" cy="252.9" r="33.4"/>
<circle class="st2" cx="247.7" cy="413.7" r="33.4"/>
<circle class="st3" cx="397.1" cy="334.8" r="33.4"/>
<circle class="st4" cx="175.7" cy="92" r="33.4"/>
<g id="Arrow">
	
		<linearGradient id="SVGID_1_" gradientUnits="userSpaceOnUse" x1="-63.1932" y1="580.3679" x2="275.9263" y2="580.3679" gradientTransform="matrix(0.7071 -0.7071 0.7071 0.7071 -298.0192 -9.887)">
		<stop  offset="5.898784e-02" style="stop-color:#231F20"/>
		<stop  offset="0.1447" style="stop-color:#332738"/>
		<stop  offset="0.4578" style="stop-color:#6C448C"/>
		<stop  offset="0.7145" style="stop-color:#9658C9"/>
		<stop  offset="0.9017" style="stop-color:#B065EF"/>
		<stop  offset="1" style="stop-color:#BA6AFD"/>
	</linearGradient>
	<polygon class="st5" points="347,218.2 93.8,471.3 41.5,419 294.6,165.9 	"/>
	<path class="st6" d="M310.8,202L419.9,92.9c-2.3-2.3-13.1,3.5-13.1,3.5L215.1,188c-3.5,1.4-6.6,9.6-1.1,10.2l94,2.9
		C308,201.1,310,201.2,310.8,202z"/>
	<path class="st7" d="M310.8,202L419.9,92.9c2.3,2.3-3.5,13.1-3.5,13.1l-91.6,191.7c-1.4,3.5-9.6,6.6-10.2,1.1l-2.9-94
		C311.7,204.8,311.6,202.7,310.8,202z"/>
</g>
</svg>
