<svg version="1.1" id="Layer_1" xmlns="http://www.w3.org/2000/svg" xmlns:xlink="http://www.w3.org/1999/xlink" x="0" y="0" viewBox="0 0 256 256" style="enable-background:new 0 0 256 256" xml:space="preserve"><style>.st1{fill:#113048}.st2{fill:#fbfcfd}</style><path id="Background" style="fill:#62a9e1" d="M0 0h256v256H0z"/><g id="Pen_00000173126056517089820290000018069536849648545170_"><path id="Shaft_00000032631693018157346400000012792826040246579091_" class="st1" d="m164.3 71.6-79.8 95.1c-.7.8-8.2 8.9-13.7 6.7-.4-.2-.9-.4-1.3-.8s-.7-.8-1-1.2c-3.1-5.1 3.5-13.8 4.2-14.7l79.8-95.1-11.2-9.4C114 84.9 86.7 117.4 59.4 150c-2.1 2.5-4 6.5-5.6 11.3-2 5.7-2.5 10.8-2.7 14.4l18.5 15.6c3.6-.8 8.4-2.2 13.7-5.1 4.4-2.5 8.1-5 10.2-7.5 27.3-32.6 54.6-65.1 81.9-97.7l-11.1-9.4z"/><path id="Tip_00000109012929004236585850000016941234611016683172_" class="st2" d="M73.2 188.9c-.3-4.6-3.4-9-7.2-12.3-3.9-3.2-8.7-5.5-13.3-4.9-1.4.1-2 1.5-2.2 2.3-1.4 4.9-5.8 19.6-5.8 19.6-.7 2.5-.4 4.9 1.6 6.5 1.9 1.7 4.3 1.6 6.7.5 0 0 13.7-6.8 18.3-9.1.8-.4 2.1-1.1 1.9-2.6z"/></g><path id="G_00000032644587001527105060000018316874090553704600_" d="M181.2 169.4c0 6.9-1.2 13-3.6 18.1-2.4 5-5.5 9.3-9.4 12.7-3.8 3.4-8.2 5.9-13 7.7-4.9 1.7-9.7 2.6-14.6 2.6-5 0-9.8-.8-14.6-2.6-4.7-1.8-9.1-4.2-13-7.7-3.9-3.4-7-7.6-9.4-12.7-2.3-5.1-3.6-11.3-3.6-18.1l-.1-89.2c0-6.7 1.2-12.7 3.6-18 2.4-5.1 5.5-9.5 9.4-12.8 3.8-3.5 8.2-5.9 13-7.7.5-.2 1.1-.4 1.7-.6 4.2-1.3 8.5-2 12.8-2 5 0 9.8.8 14.6 2.6 4.7 1.8 9.1 4.2 13 7.7 3.9 3.4 7 7.6 9.4 12.8 2.3 5.2 3.6 11.3 3.6 18v8.6h-24v-8.6c0-5.8-1.7-10.2-4.9-12.8-3.2-2.7-7-4.1-11.6-4.1s-8.3 1.3-11.6 4.1c-.5.4-1 .9-1.4 1.4l-.1.1c-2.2 2.7-3.5 6.6-3.5 11.5v89c0 5.8 1.7 10.2 4.9 12.8 3.2 2.7 7 4.1 11.6 4.1s8.3-1.3 11.6-4.1c3.2-2.8 4.9-7 4.9-12.8v-31.8h-19.1v-21.3h43.4v53.1z" style="fill:#316189"/><defs><path id="SVGID_1_" d="M42.4 50.3v153.1h135V50.3h-135zm95.4 77.1v-11.1h9.3l-9.3 11.1zM150.2 66c-2.8-1.8-6-2.7-9.7-2.7-4.6 0-8.3 1.3-11.6 4.1-.5.4-1 .9-1.4 1.4l-.1.1c-.2.2-.4.5-.6.8l-.2-1.4 13.9-16.6 1.4-.1 11.2 9.4.1 1.4-3 3.6zm20 22.8H157v-8.6c0-.5 0-.9-.1-1.4l6.6-7.8 1.4-.1 11.2 9.4.1 1.4-6 7.1z"/></defs><clipPath id="SVGID_00000028298217613776179160000005523041047902094464_"><use xlink:href="#SVGID_1_" style="overflow:visible"/></clipPath><g id="Pen_00000098196992906454646350000012089943779313104539_" style="clip-path:url(#SVGID_00000028298217613776179160000005523041047902094464_)"><path id="Shaft_00000124127574464409212470000009449243116425862579_" class="st1" d="m164.3 71.6-79.8 95.1c-.7.8-8.2 8.9-13.7 6.7-.4-.2-.9-.4-1.3-.8s-.7-.8-1-1.2c-3.1-5.1 3.5-13.8 4.2-14.7l79.8-95.1-11.2-9.4C114 84.9 86.7 117.4 59.4 150c-2.1 2.5-4 6.5-5.6 11.3-2 5.7-2.5 10.8-2.7 14.4l18.5 15.6c3.6-.8 8.4-2.2 13.7-5.1 4.4-2.5 8.1-5 10.2-7.5 27.3-32.6 54.6-65.1 81.9-97.7l-11.1-9.4z"/><path id="Tip_00000109023957128278743800000009198388528092191670_" class="st2" d="M73.2 188.9c-.3-4.6-3.4-9-7.2-12.3-3.9-3.2-8.7-5.5-13.3-4.9-1.4.1-2 1.5-2.2 2.3-1.4 4.9-5.8 19.6-5.8 19.6-.7 2.5-.4 4.9 1.6 6.5 1.9 1.7 4.3 1.6 6.7.5 0 0 13.7-6.8 18.3-9.1.8-.4 2.1-1.1 1.9-2.6z"/></g></svg>