<?xml version="1.0" encoding="utf-8"?>
<!-- Generator: Adobe Illustrator 27.1.1, SVG Export Plug-In . SVG Version: 6.00 Build 0)  -->
<svg version="1.1" id="Layer_1" xmlns="http://www.w3.org/2000/svg" xmlns:xlink="http://www.w3.org/1999/xlink" x="0px" y="0px"
	 viewBox="0 0 256 256" style="enable-background:new 0 0 256 256;" xml:space="preserve">
<style type="text/css">
	.st0{fill:#62A9E1;}
	.st1{fill:#113048;}
	.st2{fill:#FBFCFD;}
	.st3{fill:#316189;}
	.st4{clip-path:url(#SVGID_00000050659881166118417990000008275100351864109452_);}
</style>
<rect id="Background" class="st0" width="256" height="256"/>
<g>
	<g>
		<g id="Pen_00000173126056517089820290000018069536849648545170_">
			<path id="Shaft_00000032631693018157346400000012792826040246579091_" class="st1" d="M164.3,71.6l-79.8,95.1
				c-0.7,0.8-8.2,8.9-13.7,6.7c-0.4-0.2-0.9-0.4-1.3-0.8c-0.4-0.4-0.7-0.8-1-1.2c-3.1-5.1,3.5-13.8,4.2-14.7l79.8-95.1l-11.2-9.4
				C114,84.9,86.7,117.4,59.4,150c-2.1,2.5-4,6.5-5.6,11.3c-2,5.7-2.5,10.8-2.7,14.4l18.5,15.6c3.6-0.8,8.4-2.2,13.7-5.1
				c4.4-2.5,8.1-5,10.2-7.5c27.3-32.6,54.6-65.1,81.9-97.7L164.3,71.6z"/>
			<path id="Tip_00000109012929004236585850000016941234611016683172_" class="st2" d="M73.2,188.9c-0.3-4.6-3.4-9-7.2-12.3
				c-3.9-3.2-8.7-5.5-13.3-4.9c-1.4,0.1-2,1.5-2.2,2.3c-1.4,4.9-5.8,19.6-5.8,19.6c-0.7,2.5-0.4,4.9,1.6,6.5
				c1.9,1.7,4.3,1.6,6.7,0.5c0,0,13.7-6.8,18.3-9.1C72.1,191.1,73.4,190.4,73.2,188.9z"/>
		</g>
	</g>
	<path id="G_00000032644587001527105060000018316874090553704600_" class="st3" d="M181.2,169.4c0,6.9-1.2,13-3.6,18.1
		c-2.4,5-5.5,9.3-9.4,12.7c-3.8,3.4-8.2,5.9-13,7.7c-4.9,1.7-9.7,2.6-14.6,2.6c-5,0-9.8-0.8-14.6-2.6c-4.7-1.8-9.1-4.2-13-7.7
		c-3.9-3.4-7-7.6-9.4-12.7c-2.3-5.1-3.6-11.3-3.6-18.1l-0.1-89.2c0-6.7,1.2-12.7,3.6-18c2.4-5.1,5.5-9.5,9.4-12.8
		c3.8-3.5,8.2-5.9,13-7.7c0.5-0.2,1.1-0.4,1.7-0.6c4.2-1.3,8.5-2,12.8-2c5,0,9.8,0.8,14.6,2.6c4.7,1.8,9.1,4.2,13,7.7
		c3.9,3.4,7,7.6,9.4,12.8c2.3,5.2,3.6,11.3,3.6,18v8.6h-24v-8.6c0-5.8-1.7-10.2-4.9-12.8c-3.2-2.7-7-4.1-11.6-4.1
		c-4.6,0-8.3,1.3-11.6,4.1c-0.5,0.4-1,0.9-1.4,1.4l-0.1,0.1c-2.2,2.7-3.5,6.6-3.5,11.5v89c0,5.8,1.7,10.2,4.9,12.8
		c3.2,2.7,7,4.1,11.6,4.1c4.6,0,8.3-1.3,11.6-4.1c3.2-2.8,4.9-7,4.9-12.8v-31.8h-19.1v-21.3h43.4V169.4z"/>
	<g>
		<defs>
			<path id="SVGID_1_" d="M42.4,50.3v153.1h135V50.3H42.4z M137.8,127.4v-11.1h9.3L137.8,127.4z M150.2,66c-2.8-1.8-6-2.7-9.7-2.7
				c-4.6,0-8.3,1.3-11.6,4.1c-0.5,0.4-1,0.9-1.4,1.4l-0.1,0.1c-0.2,0.2-0.4,0.5-0.6,0.8l-0.2-1.4l13.9-16.6l1.4-0.1l11.2,9.4
				l0.1,1.4L150.2,66z M170.2,88.8H157v-8.6c0-0.5,0-0.9-0.1-1.4l6.6-7.8l1.4-0.1l11.2,9.4l0.1,1.4L170.2,88.8z"/>
		</defs>
		<clipPath id="SVGID_00000028298217613776179160000005523041047902094464_">
			<use xlink:href="#SVGID_1_"  style="overflow:visible;"/>
		</clipPath>
		
			<g id="Pen_00000098196992906454646350000012089943779313104539_" style="clip-path:url(#SVGID_00000028298217613776179160000005523041047902094464_);">
			<path id="Shaft_00000124127574464409212470000009449243116425862579_" class="st1" d="M164.3,71.6l-79.8,95.1
				c-0.7,0.8-8.2,8.9-13.7,6.7c-0.4-0.2-0.9-0.4-1.3-0.8c-0.4-0.4-0.7-0.8-1-1.2c-3.1-5.1,3.5-13.8,4.2-14.7l79.8-95.1l-11.2-9.4
				C114,84.9,86.7,117.4,59.4,150c-2.1,2.5-4,6.5-5.6,11.3c-2,5.7-2.5,10.8-2.7,14.4l18.5,15.6c3.6-0.8,8.4-2.2,13.7-5.1
				c4.4-2.5,8.1-5,10.2-7.5c27.3-32.6,54.6-65.1,81.9-97.7L164.3,71.6z"/>
			<path id="Tip_00000109023957128278743800000009198388528092191670_" class="st2" d="M73.2,188.9c-0.3-4.6-3.4-9-7.2-12.3
				c-3.9-3.2-8.7-5.5-13.3-4.9c-1.4,0.1-2,1.5-2.2,2.3c-1.4,4.9-5.8,19.6-5.8,19.6c-0.7,2.5-0.4,4.9,1.6,6.5
				c1.9,1.7,4.3,1.6,6.7,0.5c0,0,13.7-6.8,18.3-9.1C72.1,191.1,73.4,190.4,73.2,188.9z"/>
		</g>
	</g>
</g>
</svg>
