<?xml version="1.0" encoding="utf-8"?>
<!-- Generator: Adobe Illustrator 27.0.1, SVG Export Plug-In . SVG Version: 6.00 Build 0)  -->
<svg version="1.1" id="Layer_1" xmlns="http://www.w3.org/2000/svg" xmlns:xlink="http://www.w3.org/1999/xlink" x="0px" y="0px"
	 viewBox="0 0 263.1 263.1" style="enable-background:new 0 0 263.1 263.1;" xml:space="preserve">
<style type="text/css">
	.st0{fill:#62A9E1;}
	.st1{fill:#316189;}
	.st2{fill:#113048;}
	.st3{fill:#FBFCFD;}
</style>
<rect y="0" class="st0" width="263.1" height="263.1"/>
<g id="Logo">
	<path id="G_Background" class="st1" d="M161.3,131.6v9.9v32.7c0,6-1.7,10.3-5,13.2c-3.4,2.9-7.2,4.2-11.9,4.2s-8.6-1.4-11.9-4.2
		c-3.3-2.7-5-7.2-5-13.2V82.6c0-5,1.3-9,3.6-11.8l0.1-0.1c0.4-0.5,0.9-1,1.4-1.4c3.4-2.9,7.2-4.2,11.9-4.2s8.6,1.4,11.9,4.2
		c3.3,2.7,5,7.2,5,13.2v8.8H186v-8.8c0-6.9-1.3-13.2-3.7-18.5c-2.5-5.3-5.7-9.7-9.7-13.2c-4-3.6-8.5-6.1-13.4-7.9
		c-4.9-1.8-9.9-2.7-15-2.7c-4.4,0-8.8,0.7-13.2,2.1l0,0l0,0c-0.6,0.2-1.2,0.4-1.7,0.6c-4.9,1.8-9.5,4.3-13.4,7.9
		c-4,3.4-7.2,7.9-9.7,13.2c-2.5,5.4-3.7,11.6-3.7,18.5l0.1,91.7c0,7,1.3,13.4,3.7,18.6c2.5,5.2,5.7,9.6,9.7,13.1
		c4,3.6,8.5,6.1,13.4,7.9c4.9,1.8,9.9,2.7,15,2.7c5,0,10-0.9,15-2.7c4.9-1.8,9.5-4.4,13.4-7.9c4-3.5,7.2-7.9,9.7-13.1
		c2.5-5.2,3.7-11.5,3.7-18.6v-32.7v-9.9L161.3,131.6L161.3,131.6z"/>
	<path id="G3" class="st1" d="M161.3,131.6v9.9v32.7c0,6-1.7,10.3-5,13.2c-3.4,2.9-7.2,4.2-11.9,4.2s-8.6-1.4-11.9-4.2
		c-3.3-2.7-5-7.2-5-13.2V82.6c0-5,1.3-9,3.6-11.8l0.1-0.1L113.5,53c-2.9,3-5.3,6.8-7.2,10.9c-2.5,5.4-3.7,11.6-3.7,18.5l0.1,91.7
		c0,7,1.3,13.4,3.7,18.6c2.5,5.2,5.7,9.6,9.7,13.1c4,3.6,8.5,6.1,13.4,7.9c4.9,1.8,9.9,2.7,15,2.7c5,0,10-0.9,15-2.7
		c4.9-1.8,9.5-4.4,13.4-7.9c4-3.5,7.2-7.9,9.7-13.1c2.5-5.2,3.7-11.5,3.7-18.6v-32.7v-9.9L161.3,131.6L161.3,131.6z"/>
	<g id="Pen">
		<path id="Stem" class="st2" d="M154.4,66.7l10.6,11l-77.1,91c-1.7,2.1-3.9,4-6.2,5.4c-1.7,1.1-2.5,1.5-3.7,2.3
			c-2,0.8-3.9,1.9-6.4-0.5l0,0c-1.7-1.4-2.4-3.8-1.6-5.9c0.4-1.2,0.8-2.3,1.3-3.4c1.2-2.9,2.7-5.5,4.6-7.8
			C89.9,142.4,154.4,66.7,154.4,66.7z M152.5,45.8l-85.3,99.7c-2.8,3.3-6,6.6-7.8,10.3c-3.1,6.8-5.5,15.3-6.9,22.8l23,16.7
			c4.8-1.5,12.6-5,15.3-6.6c0.4-0.3,0.8-0.6,1.2-1l92.9-109.6L152.5,45.8L152.5,45.8z"/>
		<path id="Tip" class="st3" d="M76,193.1c-1.3-9.2-12.2-17.8-21.2-16.9c-1,0.1-1.9,0.9-2.2,1.9c-1.5,5-6.3,20.6-6.3,20.6
			c-0.8,2.7-0.4,5.2,1.9,6.9c2.5,1.8,4.3,1.4,6.9,0.3c0,0,14.7-7.6,19.6-10C75.6,195.3,76.2,194.1,76,193.1z"/>
	</g>
	<rect id="G2" x="141.5" y="119.5" class="st1" width="44.6" height="21.9"/>
	<path id="G1" class="st1" d="M131.2,70.7c0.4-0.5,0.9-1,1.4-1.4c3.4-2.9,7.2-4.2,11.9-4.2s8.6,1.4,11.9,4.2c3.3,2.7,5,7.2,5,13.2
		v8.8H186v-8.8c0-6.9-1.3-13.2-3.7-18.5c-2.5-5.3-5.7-9.7-9.7-13.2c-4-3.6-8.5-6.1-13.4-7.9c-4.9-1.8-9.9-2.7-15-2.7
		c-4.4,0-8.8,0.7-13.2,2.1l0,0l0,0c-0.6,0.2-1.2,0.4-1.7,0.6c-4.9,1.8-9.5,4.3-13.4,7.9c-0.9,0.7-1.6,1.4-2.4,2.3L131.2,70.7
		L131.2,70.7z"/>
</g>
</svg>
