<?xml version="1.0" encoding="utf-8"?>
<!-- Generator: Adobe Illustrator 25.0.0, SVG Export Plug-In . SVG Version: 6.00 Build 0)  -->
<svg version="1.1" id="Layer_1" xmlns="http://www.w3.org/2000/svg" xmlns:xlink="http://www.w3.org/1999/xlink" x="0px" y="0px"
	 viewBox="0 0 512 512" style="enable-background:new 0 0 512 512;" xml:space="preserve">
<style type="text/css">
	.st0{fill:#F5F1E8;}
	.st1{fill:#70CC50;}
	.st2{fill:#B2906A;}
	.st3{fill:#DE5540;}
	.st4{fill:#94A9D4;}
	.st5{fill:url(#SVGID_1_);}
	.st6{fill:#9934EE;}
	.st7{fill:#64229C;}
</style>
<rect class="st0" width="512" height="512"/>
<circle class="st1" cx="91.5" cy="252.9" r="33.4"/>
<circle class="st2" cx="247.7" cy="413.7" r="33.4"/>
<circle class="st3" cx="397.1" cy="334.8" r="33.4"/>
<circle class="st4" cx="175.7" cy="92" r="33.4"/>
<g>
	
		<linearGradient id="SVGID_1_" gradientUnits="userSpaceOnUse" x1="-41.8483" y1="57.0022" x2="316.1517" y2="57.0022" gradientTransform="matrix(0.7071 -0.7071 0.7071 0.7071 56.937 375.2825)">
		<stop  offset="0" style="stop-color:#F5F1E8"/>
		<stop  offset="0.2659" style="stop-color:#E4CBE0"/>
		<stop  offset="0.5867" style="stop-color:#D2A4D8"/>
		<stop  offset="0.8426" style="stop-color:#C78CD3"/>
		<stop  offset="1" style="stop-color:#C383D1"/>
	</linearGradient>
	<polygon class="st5" points="347,218.2 93.8,471.3 41.5,419 294.6,165.9 	"/>
	<path class="st6" d="M310.8,202L419.9,92.9c-2.3-2.3-13.1,3.5-13.1,3.5L215.1,188c-3.5,1.4-6.6,9.6-1.1,10.2l94,2.9
		C308,201.1,310,201.2,310.8,202z"/>
	<path class="st7" d="M310.8,202L419.9,92.9c2.3,2.3-3.5,13.1-3.5,13.1l-91.6,191.7c-1.4,3.5-9.6,6.6-10.2,1.1l-2.9-94
		C311.7,204.8,311.6,202.7,310.8,202z"/>
</g>
</svg>
