<?xml version="1.0" encoding="utf-8"?>
<!-- Generator: Adobe Illustrator 25.0.0, SVG Export Plug-In . SVG Version: 6.00 Build 0)  -->
<svg version="1.1"
	 id="Logo" xmlns:cc="http://creativecommons.org/ns#" xmlns:dc="http://purl.org/dc/elements/1.1/" xmlns:inkscape="http://www.inkscape.org/namespaces/inkscape" xmlns:rdf="http://www.w3.org/1999/02/22-rdf-syntax-ns#" xmlns:sodipodi="http://sodipodi.sourceforge.net/DTD/sodipodi-0.dtd" xmlns:svg="http://www.w3.org/2000/svg"
	 xmlns="http://www.w3.org/2000/svg" xmlns:xlink="http://www.w3.org/1999/xlink" x="0px" y="0px" viewBox="0 0 750 892"
	 style="enable-background:new 0 0 750 892;" xml:space="preserve">
<style type="text/css">
	.st0{fill:#8A8A8A;}
	.st1{fill:#676464;}
	.st2{fill:#B9B9B9;}
	.st3{fill:#FFFFFF;}
</style>
<rect id="Bckground" x="-83" y="-36" width="950.9" height="950.9"/>
<path id="Oiseau3" class="st0" d="M537.9,644.6c-0.2-3.2-6.8-18.5-11.7-26.8c-6.1-10.2-19.8-24.8-29.9-31.8
	c-9.9-6.9-24-13.4-34.4-16.1c-16.8-4.3-37.3-4.3-53.7-0.1c-4.3,1.1-8,1.8-8.2,1.6c-0.6-0.6,8.2-5.4,16.8-9.1
	c27.9-12.1,62.8-9,88.5,7.8c10.1,6.6,22,18.4,28.3,28.1l4.9,7.6l4.8-7.5c13.1-20.8,35.3-35.9,61-41.6c11.2-2.5,30.9-2,42,1
	c8.5,2.3,20.2,7.2,27,11.2c5.3,3.1,5.2,3.6-0.5,2c-22.6-6.5-47.9-5.5-69.6,2.9c-27.5,10.7-50.8,34.1-61,61.6
	C538.1,646.4,537.9,646.7,537.9,644.6L537.9,644.6z"/>
<path id="Oiseau2" class="st1" d="M382.5,418c-3.2-7.2-13.2-19.6-20.4-25.3c-9.3-7.5-14-10.3-24-14.1c-11.5-4.4-21.5-5.9-35.4-5.2
	c-17.5,0.8-31.2,5.8-46.5,17.1c-3.4,2.5-6.2,4.2-6.2,3.8c0-1.7,11.8-12.1,18.6-16.5c13.8-8.9,27.6-12.8,45-12.8
	c26.3,0,49.6,10.9,64.9,30.3c3.3,4.2,6.2,7.7,6.5,7.7c0.3,0.1,1.3-1.1,2.2-2.6c3.5-6,13.4-15.5,21.7-21.1
	c14.9-10,29.2-14.3,47.5-14.3c22,0.1,42.7,8.4,57.1,23c5.8,5.9,5.4,6.5-1,1.6c-13.2-10-28.3-15.4-45.2-16.2
	c-14.2-0.7-24.1,0.8-35.8,5.4c-19.7,7.7-32.7,19.6-46,41.8C384.6,422.1,384.1,421.8,382.5,418z"/>
<path id="Oiseau1" class="st2" d="M519.5,256.2c-1.6-4.2-5-11.5-7.7-16.2c-14.9-25.6-37.9-43-66.9-50.7c-8.4-2.2-11.8-2.6-25.2-2.7
	c-12.9,0-17,0.4-24.8,2.3c-5.1,1.3-9.6,2-9.9,1.7c-1.2-1.1,22.4-11.5,30.9-13.5c10.4-2.5,30.6-2.8,40.8-0.7
	c24.7,5.3,48.2,21.3,61.1,41.6c2.4,3.8,4.6,6.9,4.9,6.9c0.3,0,2.5-3.2,5-7.1c9.6-15.2,26.5-29.2,43.6-36c12.3-5,22.1-6.8,35.9-6.8
	c13.3,0,23.7,1.8,34.5,6.1c7.4,3,20.5,9.8,19.8,10.4c-0.2,0.1-4.6-0.9-9.8-2.3c-8.3-2.2-11.5-2.5-25.5-2.5s-17.2,0.3-25.6,2.5
	c-12.7,3.4-22.3,7.6-32.3,14.2c-19.6,12.7-35,31.9-42.4,52.8c-1.5,4.3-2.9,7.8-3.2,7.8S521,260.5,519.5,256.2z"/>
<path id="Lune" class="st3" d="M415.7,853.2c-41.5-3.8-84.5-13.9-122.1-28.8c-20.4-8-53.9-24.9-71.8-36.2
	c-51.8-32.5-96.8-76.7-130.4-128c-39-59.4-61.6-122.2-70-195c-2-17.4-1.7-71.5,0.6-90c6.4-53,19.7-98.2,42.6-145
	C106.1,145.3,176.4,75,260.1,34.6c19.3-9.3,34.3-15.7,47.3-20.3c5.3-1.9,10.6-3.8,11.7-4.2s-0.9,1.8-4.5,5.1
	c-22.5,20.2-46,46.5-64.7,72.6c-23.7,33-47.8,82.1-60.1,122.4c-13.8,45.1-20.1,91.3-18.9,139c1.7,66.7,16,123.8,46.2,184.3
	c21.5,43.2,45.3,76.1,80.5,111.3c53.3,53.4,114.2,89.4,187,110.4c40.5,11.7,77,16.7,121.5,16.7c41.6-0.1,82.1-5.7,117.8-16.3
	c3.8-1.1,7.1-1.8,7.3-1.6c0.6,0.6-18.9,15.3-33.1,24.9c-41.5,28.3-81.1,46.7-131,60.7C521.3,852.4,464,857.5,415.7,853.2z"/>
</svg>
